HIERARCHY
ROOT Hips
{
  OFFSET 0.000000 0.000000 0.000000
  CHANNELS 6 Xposition Yposition Zposition Xrotation Yrotation Zrotation
  JOINT Spine
  {
    OFFSET 0.762862 23.197727 -6.058858
    CHANNELS 3 Xrotation Yrotation Zrotation
    JOINT Chest
    {
      OFFSET 0.762862 23.197727 -6.058858
      CHANNELS 3 Xrotation Yrotation Zrotation
      JOINT Neck
      {
        OFFSET -0.270074 9.229822 -3.797407
        CHANNELS 3 Xrotation Yrotation Zrotation
        JOINT Head
        {
          OFFSET 0.225285 8.430608 -7.939136
          CHANNELS 3 Xrotation Yrotation Zrotation
          End Site
          {
            OFFSET 0.067585 2.529182 -2.381741
          }
        }
      }
      JOINT LeftShoulder
      {
        OFFSET 17.595006 0.044015 0.996102
        CHANNELS 3 Xrotation Yrotation Zrotation
        JOINT LeftArm
        {
          OFFSET 3.473531 -23.049457 3.982832
          CHANNELS 3 Xrotation Yrotation Zrotation
          JOINT LeftForeArm
          {
            OFFSET 3.218371 -22.980839 -10.241008
            CHANNELS 3 Xrotation Yrotation Zrotation
            JOINT LeftHand
            {
              OFFSET -0.008887 -5.924601 -2.989147
              CHANNELS 3 Xrotation Yrotation Zrotation
              End Site
              {
                OFFSET -0.002666 -1.777380 -0.896744
              }
            }
          }
        }
      }
      JOINT RightShoulder
      {
        OFFSET -17.595006 -0.044015 -0.996102
        CHANNELS 3 Xrotation Yrotation Zrotation
        JOINT RightArm
        {
          OFFSET -5.553442 -24.118242 6.751946
          CHANNELS 3 Xrotation Yrotation Zrotation
          JOINT RightForeArm
          {
            OFFSET -3.099014 -24.977112 -8.059516
            CHANNELS 3 Xrotation Yrotation Zrotation
            JOINT RightHand
            {
              OFFSET 0.298828 -5.701374 -2.573080
              CHANNELS 3 Xrotation Yrotation Zrotation
              End Site
              {
                OFFSET 0.089648 -1.710412 -0.771924
              }
            }
          }
        }
      }
    }
  }
  JOINT LeftUpLeg
  {
    OFFSET 11.990773 -0.614304 0.788698
    CHANNELS 3 Xrotation Yrotation Zrotation
    JOINT LeftLeg
    {
      OFFSET -5.144974 -41.347031 -0.530598
      CHANNELS 3 Xrotation Yrotation Zrotation
      JOINT LeftFoot
      {
        OFFSET 2.709190 -35.138144 18.775504
        CHANNELS 3 Xrotation Yrotation Zrotation
        End Site
        {
          OFFSET 0.812757 -10.541443 5.632651
        }
      }
    }
  }
  JOINT RightUpLeg
  {
    OFFSET -11.990773 0.614304 -0.788698
    CHANNELS 3 Xrotation Yrotation Zrotation
    JOINT RightLeg
    {
      OFFSET 0.284998 -37.357294 5.081156
      CHANNELS 3 Xrotation Yrotation Zrotation
      JOINT RightFoot
      {
        OFFSET 4.690763 -28.563407 28.545631
        CHANNELS 3 Xrotation Yrotation Zrotation
        End Site
        {
          OFFSET 1.407229 -8.569022 8.563689
        }
      }
    }
  }
}
MOTION
Frames: 8
Frame Time: 0.083333
0.000000 60.000000 0.000000 0.358990 0.013591 0.100002 0.358990 0.013591 0.100002 0.327291 0.070706 0.159093 0.285289 0.047998 0.061300 5.000000 0.000000 0.000000 0.231044 0.129908 0.565117 -0.461196 0.009041 -0.050243 94.255916 -8.078112 1.256979 0.000000 0.000000 0.000000 0.725345 -0.131334 0.132051 -0.370535 0.009425 -0.000790 89.999465 17.932466 -2.331655 0.000000 0.000000 0.000000 -1.338922 0.156503 -0.551493 0.217767 0.233345 0.410946 0.000000 0.000000 0.000000 -0.328080 0.118260 0.863176 3.573693 -0.010913 -0.771810 0.000000 0.000000 0.000000
-0.996446 60.000490 -0.276369 0.370270 0.013398 0.100766 0.370270 0.013398 0.100766 0.331783 0.071872 0.161870 0.289586 0.048786 0.062317 5.000000 0.000000 0.000000 0.248185 0.132174 0.569899 -0.287922 0.015220 -0.052714 93.413054 -7.485029 1.237995 0.000000 0.000000 0.000000 0.742418 -0.128463 0.160802 -0.294997 0.009598 -0.007216 88.795300 19.032206 -2.981272 0.000000 0.000000 0.000000 -1.364213 0.159097 -0.565995 0.228937 0.237468 0.417414 0.000000 0.000000 0.000000 -0.322059 0.121507 0.888098 3.700203 -0.012825 -0.801309 0.000000 0.000000 0.000000
-2.629133 60.001459 -0.666327 0.370709 0.013392 0.100801 0.370709 0.013392 0.100801 0.331940 0.071918 0.161980 0.289741 0.048813 0.062353 5.000000 0.000000 0.000000 0.733054 0.398497 1.751557 -0.310201 0.068347 -0.172161 94.599895 -4.781384 0.688620 0.000000 0.000000 0.000000 2.173488 -0.362645 0.530548 -0.614120 0.027378 -0.038239 88.649775 20.166558 -3.383520 0.000000 0.000000 0.000000 -1.365149 0.159185 -0.566608 0.229533 0.237594 0.417581 0.000000 0.000000 0.000000 -0.321758 0.121601 0.888852 3.704401 -0.012859 -0.802274 0.000000 0.000000 0.000000
-3.449131 60.002221 -0.866614 1.221683 0.017152 0.228483 1.221683 0.017152 0.228483 0.856665 0.183407 0.415859 0.752296 0.121848 0.157245 5.000000 0.000000 0.000000 1.141137 0.665836 3.059717 0.873996 0.196734 -0.371870 94.735541 0.147062 -0.099979 0.000000 0.000000 0.000000 3.342956 -0.540174 0.902761 -0.382693 0.037187 -0.086908 89.160343 19.606915 -3.062691 0.000000 0.000000 0.000000 -3.743450 0.423802 -1.682323 0.783761 0.662476 1.150759 0.000000 0.000000 0.000000 -0.359680 0.372516 2.749141 15.926655 -0.180004 -3.387704 0.000000 0.000000 0.000000
-3.837260 60.003081 -1.177071 2.150982 -0.017434 0.219728 2.150982 -0.017434 0.219728 1.065178 0.233909 0.541131 0.958540 0.150982 0.197660 5.000000 0.000000 0.000000 1.607621 0.930699 4.422376 2.581898 0.446238 -0.761653 96.404178 8.094466 -1.194923 0.000000 0.000000 0.000000 4.006820 -0.679966 0.971611 -0.105900 0.026111 -0.073411 89.019426 20.013940 -3.230084 0.000000 0.000000 0.000000 -5.227000 0.559504 -2.691598 1.619815 0.916446 1.535211 0.000000 0.000000 0.000000 0.443887 0.601271 4.530929 22.621482 -0.276495 -5.123450 0.000000 0.000000 0.000000
-4.167594 60.003749 -1.668055 2.521678 -0.022544 0.252836 2.521678 -0.022544 0.252836 1.119429 0.280735 0.665709 1.057286 0.188023 0.243699 5.000000 0.000000 0.000000 3.098510 1.248097 5.552331 6.148086 0.878208 -1.335769 99.594415 13.932119 -1.463951 0.000000 0.000000 0.000000 4.741390 -0.807436 1.164524 0.439653 -0.005107 -0.018574 0.000000 0.000000 0.000000 0.000000 0.000000 0.000000 -5.662425 0.583693 -3.206637 2.514018 0.858571 1.317488 0.000000 0.000000 0.000000 0.921441 0.633298 4.902683 24.302855 -0.286000 -5.605679 0.000000 0.000000 0.000000
-4.495794 60.004440 -2.224066 3.479699 -0.037149 0.335918 3.479699 -0.037149 0.335918 1.327217 0.325689 0.784754 1.287582 0.234156 0.306928 5.000000 0.000000 0.000000 4.869179 1.638897 7.166615 9.801783 1.288241 -1.778500 102.081204 16.451501 -1.207959 0.000000 0.000000 0.000000 4.969891 -0.770209 1.550391 1.090210 -0.050009 0.068731 0.000000 0.000000 0.000000 0.000000 0.000000 0.000000 -5.906978 0.592918 -3.592335 3.011443 0.728638 1.001752 0.000000 0.000000 0.000000 1.415629 0.671243 5.357299 24.840040 -0.348351 -5.852824 0.000000 0.000000 0.000000
-4.781167 60.005252 -2.617939 4.590670 -0.027363 0.558183 4.590670 -0.027363 0.558183 1.564465 0.363100 0.886198 1.566198 0.321863 0.421405 5.000000 0.000000 0.000000 5.841972 1.812719 7.942827 11.800211 1.554186 -2.056352 104.568563 15.945035 -0.669808 0.000000 0.000000 0.000000 4.520959 -0.520875 2.143641 1.006199 -0.088232 0.189556 0.000000 0.000000 0.000000 0.000000 0.000000 0.000000 -5.397506 0.555628 -3.322291 2.329665 0.469330 0.576315 0.000000 0.000000 0.000000 1.698014 0.777597 6.323266 23.497307 -0.628075 -5.885936 0.000000 0.000000 0.000000
